# xmcd CD database file
#
# Track frame offsets:
#	150
#	16115
#	34155
#	49127
#	69040
#	78440
#	89875
#	111567
#	123102
#	134672
#
# Disc length: 1965 seconds
#
# Revision: 0
# Processed by: cddbd v1.5.1PL0 Copyright (c) Steve Scherf et al.
# Submitted via: CDex 1.40Beta6
#
DISCID=8507ab0a
DTITLE=Willie Nelson - Classics
DYEAR=2001
DGENRE=Country
TTITLE0=Always On My Mind
TTITLE1=Help Me Make It Through The Night
TTITLE2=I'm Not Trying To Forget You
TTITLE3=Angel Flying Too Close To The Ground
TTITLE4=If You've Got The Money I've Got The Time
TTITLE5=Mona Lisa
TTITLE6=The City Of New Orleans
TTITLE7=On The Road Again
TTITLE8=Don't Get Around Much Anymore
TTITLE9=The Party's Over
EXTD=
EXTT0=
EXTT1=
EXTT2=
EXTT3=
EXTT4=
EXTT5=
EXTT6=
EXTT7=
EXTT8=
EXTT9=
PLAYORDER=
